<!-- icon666.com - MILLIONS vector ICONS FREE --><svg xmlns="http://www.w3.org/2000/svg" viewBox="0 0 64 64"><g id="_07-Single-Bed" data-name="07-Single-Bed"><path d="M58.128,29H56V18.8A3.807,3.807,0,0,0,52.2,15H51.8a3.753,3.753,0,0,0-1.853.5A4.99,4.99,0,0,0,45,11H19a4.99,4.99,0,0,0-4.95,4.5A3.753,3.753,0,0,0,12.2,15H11.8A3.807,3.807,0,0,0,8,18.8V29H5.872A3.876,3.876,0,0,0,2,32.872V52a1,1,0,0,0,1,1H9a1,1,0,0,0,1-1V48H54v4a1,1,0,0,0,1,1h6a1,1,0,0,0,1-1V32.872A3.876,3.876,0,0,0,58.128,29ZM10,31.691A4.7,4.7,0,0,1,14.691,27H49.309A4.7,4.7,0,0,1,54,31.691V37H10ZM25,21v-.732A1.27,1.27,0,0,1,26.268,19H37.732A1.27,1.27,0,0,1,39,20.268V21H37v2h2v2H25V23h2V21Zm26.8-4H52.2A1.805,1.805,0,0,1,54,18.8v8.124a6.673,6.673,0,0,0-4-1.891V18.8A1.805,1.805,0,0,1,51.8,17ZM16,16a3,3,0,0,1,3-3H45a3,3,0,0,1,3,3v9H41V20.268A3.272,3.272,0,0,0,37.732,17H26.268A3.272,3.272,0,0,0,23,20.268V25H16V16Zm-4.2,1H12.2A1.805,1.805,0,0,1,14,18.8v6.233a6.673,6.673,0,0,0-4,1.891V18.8A1.805,1.805,0,0,1,11.8,17ZM8,51H4V32.872A1.874,1.874,0,0,1,5.872,31H8V51Zm2-5V39H54v7Zm50,5H56V31h2.128A1.874,1.874,0,0,1,60,32.872Z"></path></g></svg>