<?xml version="1.0" standalone="no"?><svg xmlns="http://www.w3.org/2000/svg" viewBox="0 0 1440 320"><path fill="#a2d9ff" fill-opacity="1" d="M0,192L30,160C60,128,120,64,180,64C240,64,300,128,360,133.3C420,139,480,85,540,80C600,75,660,117,720,154.7C780,192,840,224,900,250.7C960,277,1020,299,1080,293.3C1140,288,1200,256,1260,218.7C1320,181,1380,139,1410,117.3L1440,96L1440,320L1410,320C1380,320,1320,320,1260,320C1200,320,1140,320,1080,320C1020,320,960,320,900,320C840,320,780,320,720,320C660,320,600,320,540,320C480,320,420,320,360,320C300,320,240,320,180,320C120,320,60,320,30,320L0,320Z"></path></svg>